# Blender v2.82 (sub 7) OBJ File: 'Room.blend'
# www.blender.org
mtllib PillarFoundation.mtl
o Pillar1.005_Cube.002
v -129.720154 -37.950714 -27.165459
v -129.720154 -33.465706 -27.165459
v -129.720154 -37.950714 -45.377113
v -129.720154 -33.465706 -45.377113
v -111.508499 -37.950714 -27.165459
v -111.508499 -33.465706 -27.165459
v -111.508499 -37.950714 -45.377113
v -111.508499 -33.465706 -45.377113
v -111.857376 -37.950714 -45.377113
v -111.857376 -33.465706 -45.377113
v -111.857376 -37.950714 -27.165459
v -111.857376 -33.465706 -27.165459
v -129.147278 -37.950714 -45.377113
v -129.147278 -33.465706 -27.165459
v -129.147278 -33.465706 -45.377113
v -129.147278 -37.950714 -27.165459
v -129.720154 -37.950714 -27.332670
v -129.720154 -33.465706 -27.332670
v -111.508499 -37.950714 -27.332670
v -111.508499 -33.465706 -27.332670
v -111.857376 -33.465706 -27.332670
v -111.857376 -37.950714 -27.332670
v -129.147278 -37.950714 -27.332670
v -129.147278 -33.465706 -27.332670
v -129.720154 -33.465706 -45.114418
v -111.508499 -37.950714 -45.114418
v -129.720154 -37.950714 -45.114418
v -111.508499 -33.465706 -45.114418
v -111.857376 -33.465706 -45.114418
v -111.857376 -37.950714 -45.114418
v -129.147278 -37.950714 -45.114418
v -129.147278 -33.465706 -45.114418
v -129.720154 -37.672134 -27.165459
v -129.720154 -37.672134 -45.377113
v -111.508499 -37.672134 -45.377113
v -111.508499 -37.672134 -27.165459
v -111.857376 -37.672134 -27.165459
v -111.857376 -37.672134 -45.377113
v -129.147278 -37.672134 -45.377113
v -129.147278 -37.672134 -27.165459
v -111.508499 -37.672134 -27.332670
v -129.720154 -37.672134 -27.332670
v -111.508499 -37.672134 -45.114418
v -129.720154 -37.672134 -45.114418
v -129.720154 -33.737862 -27.165459
v -129.720154 -33.737862 -45.377113
v -111.508499 -33.737862 -45.377113
v -111.508499 -33.737862 -27.165459
v -111.857376 -33.737862 -27.165459
v -111.857376 -33.737862 -45.377113
v -129.147278 -33.737862 -45.377113
v -129.147278 -33.737862 -27.165459
v -111.508499 -33.737862 -27.332670
v -129.720154 -33.737862 -27.332670
v -111.508499 -33.737862 -45.114418
v -129.720154 -33.737862 -45.114418
vt 0.713542 -0.277495
vt 0.701664 -0.277495
vt 0.701664 -0.288874
vt 0.713542 -0.288874
vt 1.081260 0.484888
vt 1.093137 0.484888
vt 1.093137 0.500000
vt 1.081260 0.500000
vt 0.517805 -0.281631
vt 0.505928 -0.281631
vt 0.505928 -0.288874
vt 0.517805 -0.288874
vt 1.276996 0.475185
vt 1.288874 0.475185
vt 1.288874 0.500000
vt 1.276996 0.500000
vt 0.498630 -0.273762
vt 0.498630 -0.288874
vt 0.505927 -0.288874
vt 0.505927 -0.273762
vt -0.281576 1.264059
vt -0.281576 1.288874
vt -0.288874 1.288874
vt -0.288874 1.264059
vt -0.281577 0.500000
vt -0.281577 0.515112
vt -0.288874 0.515112
vt -0.288874 0.500000
vt 0.498630 0.475185
vt 0.505927 0.475185
vt 1.276996 -0.288874
vt 1.288874 -0.288874
vt 1.288874 -0.273762
vt 1.276996 -0.273762
vt 1.081260 -0.264059
vt 1.093137 -0.264059
vt 1.081260 -0.288874
vt 1.093137 -0.288874
vt 0.498630 0.500000
vt 0.505927 0.500000
vt 0.494463 0.515112
vt 0.494463 1.264058
vt -0.277409 0.500000
vt -0.277409 0.475185
vt -0.277409 -0.273762
vt 0.494463 0.500000
vt 0.494463 1.288874
vt -0.277409 -0.288874
vt 0.517805 0.488621
vt 0.505928 0.488621
vt 0.713542 0.500000
vt 0.701664 0.500000
vt 0.701664 0.492757
vt 0.713542 0.492757
vt 0.517805 0.500000
vt 0.505928 0.500000
vt -0.288874 -0.273762
vt -0.288874 -0.288874
vt 0.505928 1.264058
vt 0.505928 1.288874
vt 0.505927 0.515112
vt -0.288874 0.475185
vt -0.288874 0.500000
vt 0.897401 0.492757
vt 0.885243 0.492757
vt 0.885243 -0.277495
vt 0.897401 -0.277495
vt 0.701664 0.500000
vt 0.689506 0.500000
vt 0.689506 0.488621
vt 0.701664 0.488621
vt 0.897401 0.500000
vt 0.885243 0.500000
vt 0.689506 -0.281631
vt 0.701664 -0.281631
vt 1.093137 -0.273762
vt 1.105295 -0.273762
vt 1.105295 0.475185
vt 1.093137 0.475185
vt 0.897401 -0.288874
vt 0.909559 -0.288874
vt 0.909559 -0.264059
vt 0.897401 -0.264059
vt 0.909559 0.484888
vt 0.897401 0.484888
vt 1.093137 -0.288874
vt 1.105295 -0.288874
vt 1.105295 0.500000
vt 1.093137 0.500000
vt 0.689506 -0.288874
vt 0.701664 -0.288874
vt 0.909559 0.500000
vt 0.897401 0.500000
vt 0.885243 -0.288874
vn -1.0000 0.0000 0.0000
vn -0.7071 0.7071 0.0000
vn -0.5773 0.5773 -0.5773
vn -0.7071 0.0000 -0.7071
vn 0.0000 0.0000 -1.0000
vn 0.0000 0.7071 -0.7071
vn 0.5773 0.5773 -0.5773
vn 0.7071 0.0000 -0.7071
vn 1.0000 0.0000 0.0000
vn 0.7071 0.7071 0.0000
vn 0.5773 0.5773 0.5773
vn 0.7071 0.0000 0.7071
vn 0.0000 0.0000 1.0000
vn 0.0000 0.7071 0.7071
vn -0.5773 0.5773 0.5773
vn -0.7071 0.0000 0.7071
vn 0.0000 -1.0000 0.0000
vn 0.7071 -0.7071 0.0000
vn 0.5773 -0.5773 0.5773
vn 0.0000 -0.7071 0.7071
vn 0.0000 1.0000 0.0000
vn -0.7071 -0.7071 0.0000
vn -0.5773 -0.5773 0.5773
vn 0.0000 -0.7071 -0.7071
vn 0.5773 -0.5773 -0.5773
vn -0.5773 -0.5773 -0.5773
usemtl Pillar_Foundation.001
s 1
f 56/1/1 25/2/2 4/3/3 46/4/4
f 50/5/5 10/6/6 8/7/7 47/8/8
f 53/9/9 20/10/10 6/11/11 48/12/12
f 52/13/13 14/14/14 2/15/15 45/16/16
f 22/17/17 19/18/18 5/19/19 11/20/20
f 24/21/21 18/22/2 2/23/15 14/24/14
f 20/25/10 21/26/21 12/27/14 6/28/11
f 23/29/17 22/17/17 11/20/20 16/30/20
f 48/31/12 6/32/11 12/33/14 49/34/13
f 51/35/5 15/36/6 10/6/6 50/5/5
f 46/37/4 4/38/3 15/36/6 51/35/5
f 17/39/22 23/29/17 16/30/20 1/40/23
f 21/26/21 24/21/21 14/24/14 12/27/14
f 49/34/13 12/33/14 14/14/14 52/13/13
f 29/41/21 32/42/21 24/21/21 21/26/21
f 27/43/22 31/44/17 23/29/17 17/39/22
f 31/44/17 30/45/17 22/17/17 23/29/17
f 28/46/10 29/41/21 21/26/21 20/25/10
f 32/42/21 25/47/2 18/22/2 24/21/21
f 30/45/17 26/48/18 19/18/18 22/17/17
f 55/49/9 28/50/10 20/10/10 53/9/9
f 45/51/16 2/52/15 18/53/2 54/54/1
f 47/55/8 8/56/7 28/50/10 55/49/9
f 9/57/24 7/58/25 26/48/18 30/45/17
f 15/59/6 4/60/3 25/47/2 32/42/21
f 8/56/7 10/61/6 29/41/21 28/46/10
f 13/62/24 9/57/24 30/45/17 31/44/17
f 3/63/26 13/62/24 31/44/17 27/43/22
f 10/61/6 15/59/6 32/42/21 29/41/21
f 54/54/1 18/53/2 25/2/2 56/1/1
f 17/64/22 42/65/1 44/66/1 27/67/22
f 7/68/25 35/69/8 43/70/9 26/71/18
f 1/72/23 33/73/16 42/65/1 17/64/22
f 26/71/18 43/70/9 41/74/9 19/75/18
f 11/76/20 37/77/13 40/78/13 16/79/20
f 3/80/26 34/81/4 39/82/5 13/83/24
f 13/83/24 39/82/5 38/84/5 9/85/24
f 5/86/19 36/87/12 37/77/13 11/76/20
f 16/79/20 40/78/13 33/88/16 1/89/23
f 19/75/18 41/74/9 36/90/12 5/91/19
f 9/85/24 38/84/5 35/92/8 7/93/25
f 27/67/22 44/66/1 34/94/4 3/80/26
f 42/65/1 54/54/1 56/1/1 44/66/1
f 35/69/8 47/55/8 55/49/9 43/70/9
f 33/73/16 45/51/16 54/54/1 42/65/1
f 43/70/9 55/49/9 53/9/9 41/74/9
f 37/77/13 49/34/13 52/13/13 40/78/13
f 34/81/4 46/37/4 51/35/5 39/82/5
f 39/82/5 51/35/5 50/5/5 38/84/5
f 36/87/12 48/31/12 49/34/13 37/77/13
f 40/78/13 52/13/13 45/16/16 33/88/16
f 41/74/9 53/9/9 48/12/12 36/90/12
f 38/84/5 50/5/5 47/8/8 35/92/8
f 44/66/1 56/1/1 46/4/4 34/94/4
