# Blender v2.82 (sub 7) OBJ File: ''
# www.blender.org
mtllib skybox2.mtl
o cube1
v 2.000000 2.000000 2.000000
v -2.000000 2.000000 2.000000
v -2.000000 -0.000000 2.000000
v 2.000000 -0.000000 2.000000
v -2.000000 0.000000 -2.000000
v -2.000000 2.000000 -2.000000
v 2.000000 2.000000 -2.000000
v 2.000000 0.000000 -2.000000
vt 0.750000 0.750000
vt 0.750000 1.000000
vt 0.250000 1.000000
vt 0.250000 0.750000
vt 0.000000 0.250000
vt 0.250000 0.250000
vt 0.000000 0.750000
vt 0.750000 0.250000
vt 1.000000 0.250000
vt 1.000000 0.750000
vt 0.750000 0.000000
vt 0.250000 0.000000
vn -0.5774 -0.5774 -0.5774
vn -0.6739 -0.3029 -0.6738
vn 0.6738 -0.3029 -0.6739
vn 0.5774 -0.5774 -0.5774
vn 0.6739 -0.3029 0.6738
vn 0.5774 -0.5774 0.5774
vn -0.5774 -0.5774 0.5774
vn -0.6738 -0.3029 0.6739
usemtl default
s 1
f 1/1/1 4/2/2 3/3/3 2/4/4
f 5/5/5 6/6/6 2/4/4 3/7/3
f 6/6/6 7/8/7 1/1/1 2/4/4
f 7/8/7 8/9/8 4/10/2 1/1/1
f 8/11/8 7/8/7 6/6/6 5/12/5
